<svg xmlns="http://www.w3.org/2000/svg" xmlns:svg="http://www.w3.org/2000/svg" xmlns:xlink="http://www.w3.org/1999/xlink" id="svg6093" width="284.48" height="284.48" version="1.1"><defs id="defs6095"><linearGradient id="linearGradient5509" x1="358.404" x2="565.899" y1="584.157" y2="795.13" gradientTransform="translate(-74.74684,-123.06218)" gradientUnits="userSpaceOnUse" xlink:href="#linearGradient4214"/><linearGradient id="linearGradient4214"><stop style="stop-color:#24221c;stop-opacity:1" id="stop4216" offset="0"/><stop style="stop-color:#24221c;stop-opacity:0" id="stop4218" offset="1"/></linearGradient><filter id="filter4226" color-interpolation-filters="sRGB"><feGaussianBlur id="feGaussianBlur4228" stdDeviation="2.245"/></filter><linearGradient id="linearGradient5507" x1="493.294" x2="718.694" y1="721.876" y2="937.419" gradientTransform="translate(-79.99345,-128.00627)" gradientUnits="userSpaceOnUse" xlink:href="#linearGradient4157"/><linearGradient id="linearGradient4157"><stop style="stop-color:#fff;stop-opacity:1" id="stop4159" offset="0"/><stop style="stop-color:#fff;stop-opacity:0" id="stop4161" offset="1"/></linearGradient><filter id="filter4153" width="1.24" height="1.24" x="-.12" y="-.12" color-interpolation-filters="sRGB"><feGaussianBlur id="feGaussianBlur4155" stdDeviation="3.2"/></filter><linearGradient id="linearGradient5505" x1="303.514" x2="519.802" y1="532.04" y2="755.798" gradientTransform="translate(-79.99345,-128.00627)" gradientUnits="userSpaceOnUse" xlink:href="#linearGradient4165"/><linearGradient id="linearGradient4165"><stop style="stop-color:#1d2d44;stop-opacity:1" id="stop4167" offset="0"/><stop style="stop-color:#5879a9;stop-opacity:1" id="stop4169" offset="1"/></linearGradient><filter id="filter4137" color-interpolation-filters="sRGB"><feGaussianBlur id="feGaussianBlur4139" stdDeviation="6.35"/></filter></defs><metadata id="metadata6098"/><g id="layer1" transform="translate(-207.76,-390.12218)"><path id="path4127" d="m 223,405.36218 0,254 127,0 63.09375,0 L 477,595.45593 l 0,-63.09375 0,-127 -254,0 z" style="opacity:.4375;fill:#000;fill-opacity:1;fill-rule:nonzero;stroke:none;filter:url(#filter4137)"/><path style="fill:url(#linearGradient5505);fill-opacity:1;fill-rule:nonzero;stroke:none" id="rect4106" d="m 221.00655,403.36873 0,254 127,0 63.09375,0 63.90625,-63.90625 0,-63.09375 0,-127 -254,0 z"/><path style="opacity:.625;fill:#000;fill-opacity:1;fill-rule:nonzero;stroke:none;filter:url(#filter4153)" id="path4117" d="m 410.158,591.41047 c 0,0 21.33333,3.7712 32,3.7712 10.66667,0 32,-3.7712 32,-3.7712 l -64,64 c 0,0 3.7712,-21.33333 3.7712,-32 0,-10.66667 -3.7712,-32 -3.7712,-32 z"/><path id="path4113" d="m 411.41507,592.66754 c 0,0 21.33333,3.7712 32,3.7712 10.66667,0 32,-3.7712 32,-3.7712 l -64,64 c 0,0 3.7712,-21.33333 3.7712,-32 0,-10.66667 -3.7712,-32 -3.7712,-32 z" style="fill:url(#linearGradient5507);fill-opacity:1;fill-rule:nonzero;stroke:none"/><path style="opacity:.43800001;fill:url(#linearGradient5509);fill-opacity:1;fill-rule:nonzero;stroke:none;filter:url(#filter4226)" id="rect4211" d="m 480.29419,598.01688 0,64.15658 -64.15658,0 z"/><text xml:space="preserve" style="font-size:38px;font-style:normal;font-variant:normal;font-weight:400;font-stretch:normal;text-align:center;line-height:125%;letter-spacing:0;word-spacing:0;writing-mode:lr-tb;text-anchor:middle;fill:#fff;fill-opacity:1;stroke:none;font-family:Sans;-inkscape-font-specification:Sans" id="text6035" x="348.007" y="541.856"><tspan id="tspan6037" x="348.007" y="541.856" style="font-size:38px;font-style:normal;font-variant:normal;font-weight:400;font-stretch:normal;text-align:center;line-height:125%;writing-mode:lr-tb;text-anchor:middle;fill:#fff;fill-opacity:1;font-family:Sans;-inkscape-font-specification:Sans">QOwnNotes</tspan></text></g></svg>