<svg xmlns="http://www.w3.org/2000/svg" xmlns:svg="http://www.w3.org/2000/svg" id="svg3869" width="24" height="24" version="1.1"><metadata id="metadata3874"/><g id="layer1" transform="translate(-326,-532.3622)"><g id="layer1-4" transform="translate(327,-496.99999)"><rect id="rect4139" width="5" height="5" x="9" y="1033.362" ry="2.5" style="fill:#4d4d4d;fill-opacity:1;stroke:none"/><path id="rect4141" d="M 5.5,14 C 4.1149999,14 3,15.115 3,16.5 3,17.885 4.1149999,19 5.5,19 6.8850001,19 8,17.885 8,16.5 8,15.115 6.8850001,14 5.5,14 Z m 0,1 C 6.3310001,15 7,15.669 7,16.5 7,17.331 6.3310001,18 5.5,18 4.6689999,18 4,17.331 4,16.5 4,15.669 4.6689999,15 5.5,15 Z" transform="translate(0,1030.3622)" style="fill:#4d4d4d;fill-opacity:1;stroke:none"/><rect id="rect4200" width="16" height="1" x="3" y="1035.362" ry="0" style="fill:#4d4d4d;fill-opacity:1;stroke:none"/><rect id="rect4206" width="12" height="1" x="7" y="1046.362" style="fill:#4d4d4d;fill-opacity:1;stroke:none"/></g></g></svg>