<svg xmlns="http://www.w3.org/2000/svg" xmlns:svg="http://www.w3.org/2000/svg" id="svg3869" width="24" height="24" version="1.1"><metadata id="metadata3874"/><g id="layer1" transform="translate(-326,-532.3622)"><g id="layer1-8" transform="translate(-51.85714,-6.71427)"><path id="path4121" d="M 10.044922,3 C 8.2680919,3 7.5234375,3.7064456 7.5234375,5.5097656 l 0,2.4414063 c 0,1.11382 -0.034195,2.4042971 -1.015625,2.4042971 l -0.5078125,0 0,1.289062 0.5078125,0 c 0.98148,0 1.015625,1.290477 1.015625,2.404297 l 0,2.441406 C 7.5234375,18.293554 8.2680919,19 10.044922,19 l 0,-1.183594 c -1.1845501,0 -1.201172,-0.478327 -1.201172,-2.210937 l 0,-2.015625 c 0,-0.83093 -0.204705,-2.067378 -1.203125,-2.580078 0.99842,-0.51271 1.203125,-1.7510916 1.203125,-2.5820316 l 0,-2.0332032 c 0,-1.7326 0.016592,-2.2109374 1.201172,-2.2109374 L 10.044922,3 Z m 1.894531,0 0,1.1835938 c 1.18456,0 1.216797,0.4783374 1.216797,2.2109374 l 0,2.0332032 c 0,0.83094 0.204705,2.0693216 1.203125,2.5820316 -0.99842,0.5127 -1.203125,1.749148 -1.203125,2.580078 l 0,2.015625 c 0,1.73261 -0.03219,2.210937 -1.216797,2.210937 l 0,1.183594 c 1.77684,0 2.537109,-0.706446 2.537109,-2.509766 l 0,-2.441406 c 0,-1.11382 0.06864,-2.404297 1.033204,-2.404297 l 0.490234,0 0,-1.289062 -0.490234,0 c -0.96457,0 -1.033204,-1.2904771 -1.033204,-2.4042971 l 0,-2.4414063 C 14.476562,3.7064456 13.716293,3 11.939453,3 Z" transform="translate(378.85714,540.07647)" style="font-style:normal;font-variant:normal;font-weight:400;font-stretch:normal;font-size:medium;line-height:125%;font-family:oxygen;-inkscape-font-specification:oxygen;letter-spacing:0;word-spacing:0;fill:#4d4d4d;fill-opacity:1;stroke:none;stroke-width:1px;stroke-linecap:butt;stroke-linejoin:miter;stroke-opacity:1"/></g></g></svg>