<svg xmlns="http://www.w3.org/2000/svg" xmlns:svg="http://www.w3.org/2000/svg" id="svg3869" width="24" height="24" version="1.1"><defs id="defs3871"><clipPath id="clipPath16" clipPathUnits="userSpaceOnUse"><path id="path18" d="m 0,706.465 1490.926,0 L 1490.926,0 0,0 0,706.465 Z"/></clipPath><clipPath id="clipPath24" clipPathUnits="userSpaceOnUse"><path id="path26" d="m 22.1953,686.117 1447.7347,0 0,-667.1902 -1447.7347,0 L 22.1953,686.117 Z"/></clipPath><clipPath id="clipPath4534" clipPathUnits="userSpaceOnUse"><rect id="rect4536" width="32" height="32" x="8" y="8" ry="16" style="fill-opacity:1;stroke:none"/></clipPath><clipPath id="clipPath4584" clipPathUnits="userSpaceOnUse"><rect id="rect4586" width="32" height="32" x="392.571" y="507.798" ry="16" style="fill-opacity:1;stroke:none"/></clipPath><clipPath id="clipPath4550" clipPathUnits="userSpaceOnUse"><rect id="rect4552" width="32" height="32" x="392.571" y="507.798" ry="16" style="fill-opacity:1;stroke:none"/></clipPath><clipPath id="clipPath4568" clipPathUnits="userSpaceOnUse"><rect id="rect4570" width="32" height="32" x="392.571" y="507.798" ry="16" style="fill-opacity:1;stroke:none"/></clipPath><clipPath id="clipPath4528" clipPathUnits="userSpaceOnUse"><rect id="rect4530" width="32" height="32" x="8" y="8" ry="16" style="fill-opacity:1;stroke:none"/></clipPath><clipPath id="clipPath4578" clipPathUnits="userSpaceOnUse"><rect id="rect4580" width="32" height="32" x="392.571" y="507.798" ry="16" style="fill-opacity:1;stroke:none"/></clipPath><clipPath id="clipPath4562" clipPathUnits="userSpaceOnUse"><rect id="rect4564" width="32" height="32" x="392.571" y="507.798" ry="16" style="fill-opacity:1;stroke:none"/></clipPath><clipPath id="clipPath4544" clipPathUnits="userSpaceOnUse"><rect id="rect4546" width="32" height="32" x="392.571" y="507.798" ry="16" style="fill-opacity:1;stroke:none"/></clipPath><clipPath id="clipPath4390" clipPathUnits="userSpaceOnUse"><rect id="rect4392" width="32" height="32" x="8" y="8" ry="16" style="fill-opacity:1;stroke:none"/></clipPath><clipPath id="clipPath4407" clipPathUnits="userSpaceOnUse"><rect id="rect4409" width="32" height="32" x="392.571" y="507.798" ry="16" style="fill-opacity:1;stroke:none"/></clipPath><clipPath id="clipPath4424" clipPathUnits="userSpaceOnUse"><rect id="rect4426" width="32" height="32" x="392.571" y="507.798" ry="16" style="fill-opacity:1;stroke:none"/></clipPath><clipPath id="clipPath4441" clipPathUnits="userSpaceOnUse"><rect id="rect4443" width="32" height="32" x="392.571" y="507.798" ry="16" style="fill-opacity:1;stroke:none"/></clipPath><clipPath id="clipPath4528-1" clipPathUnits="userSpaceOnUse"><rect style="fill-opacity:1;stroke:none" id="rect4530-7" width="32" height="32" x="8" y="8" ry="16"/></clipPath><clipPath id="clipPath4578-8" clipPathUnits="userSpaceOnUse"><rect style="fill-opacity:1;stroke:none" id="rect4580-7" width="32" height="32" x="392.571" y="507.798" ry="16"/></clipPath><clipPath id="clipPath4562-8" clipPathUnits="userSpaceOnUse"><rect style="fill-opacity:1;stroke:none" id="rect4564-8" width="32" height="32" x="392.571" y="507.798" ry="16"/></clipPath><clipPath id="clipPath4544-1" clipPathUnits="userSpaceOnUse"><rect style="fill-opacity:1;stroke:none" id="rect4546-1" width="32" height="32" x="392.571" y="507.798" ry="16"/></clipPath></defs><metadata id="metadata3874"/><g id="layer1" transform="translate(-326,-532.3622)"><g id="layer1-1" transform="translate(327,-497)"><path id="rect3341" d="m 3,3 0,16 1,0 15,0 0,-1 L 19,3 18,3 4,3 3,3 Z M 4,7 18,7 18,18 4,18 4,7 Z m 1,1 0,9 5,0 0,-9 -5,0 z m 6,1 0,1 6,0 0,-1 -6,0 z m 0,3 0,1 4,0 0,-1 -4,0 z m 0,3 0,1 2,0 0,-1 -2,0 z" transform="translate(0,1030.3622)" style="opacity:1;fill:#4d4d4d;fill-opacity:1;stroke:none"/></g></g></svg>