<svg xmlns="http://www.w3.org/2000/svg" xmlns:svg="http://www.w3.org/2000/svg" id="svg3869" width="24" height="24" version="1.1"><defs id="defs3871"><clipPath id="clipPath16" clipPathUnits="userSpaceOnUse"><path id="path18" d="m 0,706.465 1490.926,0 L 1490.926,0 0,0 0,706.465 Z"/></clipPath><clipPath id="clipPath24" clipPathUnits="userSpaceOnUse"><path id="path26" d="m 22.1953,686.117 1447.7347,0 0,-667.1902 -1447.7347,0 L 22.1953,686.117 Z"/></clipPath><clipPath id="clipPath4534" clipPathUnits="userSpaceOnUse"><rect id="rect4536" width="32" height="32" x="8" y="8" ry="16" style="fill-opacity:1;stroke:none"/></clipPath><clipPath id="clipPath4584" clipPathUnits="userSpaceOnUse"><rect id="rect4586" width="32" height="32" x="392.571" y="507.798" ry="16" style="fill-opacity:1;stroke:none"/></clipPath><clipPath id="clipPath4550" clipPathUnits="userSpaceOnUse"><rect id="rect4552" width="32" height="32" x="392.571" y="507.798" ry="16" style="fill-opacity:1;stroke:none"/></clipPath><clipPath id="clipPath4568" clipPathUnits="userSpaceOnUse"><rect id="rect4570" width="32" height="32" x="392.571" y="507.798" ry="16" style="fill-opacity:1;stroke:none"/></clipPath><clipPath id="clipPath4528" clipPathUnits="userSpaceOnUse"><rect id="rect4530" width="32" height="32" x="8" y="8" ry="16" style="fill-opacity:1;stroke:none"/></clipPath><clipPath id="clipPath4578" clipPathUnits="userSpaceOnUse"><rect id="rect4580" width="32" height="32" x="392.571" y="507.798" ry="16" style="fill-opacity:1;stroke:none"/></clipPath><clipPath id="clipPath4562" clipPathUnits="userSpaceOnUse"><rect id="rect4564" width="32" height="32" x="392.571" y="507.798" ry="16" style="fill-opacity:1;stroke:none"/></clipPath><clipPath id="clipPath4544" clipPathUnits="userSpaceOnUse"><rect id="rect4546" width="32" height="32" x="392.571" y="507.798" ry="16" style="fill-opacity:1;stroke:none"/></clipPath><clipPath id="clipPath4390" clipPathUnits="userSpaceOnUse"><rect id="rect4392" width="32" height="32" x="8" y="8" ry="16" style="fill-opacity:1;stroke:none"/></clipPath><clipPath id="clipPath4407" clipPathUnits="userSpaceOnUse"><rect id="rect4409" width="32" height="32" x="392.571" y="507.798" ry="16" style="fill-opacity:1;stroke:none"/></clipPath><clipPath id="clipPath4424" clipPathUnits="userSpaceOnUse"><rect id="rect4426" width="32" height="32" x="392.571" y="507.798" ry="16" style="fill-opacity:1;stroke:none"/></clipPath><clipPath id="clipPath4441" clipPathUnits="userSpaceOnUse"><rect id="rect4443" width="32" height="32" x="392.571" y="507.798" ry="16" style="fill-opacity:1;stroke:none"/></clipPath><clipPath id="clipPath4528-1" clipPathUnits="userSpaceOnUse"><rect style="fill-opacity:1;stroke:none" id="rect4530-7" width="32" height="32" x="8" y="8" ry="16"/></clipPath><clipPath id="clipPath4578-8" clipPathUnits="userSpaceOnUse"><rect style="fill-opacity:1;stroke:none" id="rect4580-7" width="32" height="32" x="392.571" y="507.798" ry="16"/></clipPath><clipPath id="clipPath4562-8" clipPathUnits="userSpaceOnUse"><rect style="fill-opacity:1;stroke:none" id="rect4564-8" width="32" height="32" x="392.571" y="507.798" ry="16"/></clipPath><clipPath id="clipPath4544-1" clipPathUnits="userSpaceOnUse"><rect style="fill-opacity:1;stroke:none" id="rect4546-1" width="32" height="32" x="392.571" y="507.798" ry="16"/></clipPath></defs><metadata id="metadata3874"/><g id="layer1" transform="translate(-326,-532.3622)"><g id="layer1-6" transform="translate(-224.28572,-74.2857)"><path id="rect4203" d="M 12,4 C 9.9724023,4 8.1286798,4.7566937 6.71875,6 6.592511,6.1113202 6.4627201,6.2247799 6.34375,6.34375 L 6,6.71875 C 4.7566937,8.1286798 4,9.9724023 4,12 c 0,4.41828 3.58172,8 8,8 2.027598,0 3.87132,-0.756694 5.28125,-2 l 0.375,-0.34375 C 17.77522,17.53728 17.88868,17.407489 18,17.28125 19.243306,15.87132 20,14.027598 20,12 20,7.58172 16.41828,4 12,4 Z m 0,1 c 3.86599,0 7,3.13401 7,7 0,1.75366 -0.653215,3.334268 -1.71875,4.5625 L 7.4375,6.71875 C 8.6657315,5.6532151 10.24634,5 12,5 Z M 6.71875,7.4375 16.5625,17.28125 C 15.334268,18.346785 13.75366,19 12,19 8.13401,19 5,15.86599 5,12 5,10.24634 5.6532151,8.6657315 6.71875,7.4375 Z" transform="translate(550.28572,606.6479)" style="fill:#4d4d4d;fill-opacity:1;stroke:none"/></g></g></svg>