<svg xmlns="http://www.w3.org/2000/svg" xmlns:svg="http://www.w3.org/2000/svg" id="svg3869" width="24" height="24" version="1.1"><metadata id="metadata3874"/><g id="layer1" transform="translate(-326,-532.3622)"><g id="layer1-8" transform="translate(327,-497)"><g id="g4153"><path style="fill:#4d4d4d;fill-opacity:1;stroke:none" id="rect4161" d="m 4,17 0,2 1,0 12,0 1,0 0,-2 -1,0 0,1 -12,0 0,-1 -1,0 z" transform="translate(0,1030.3622)"/><path style="fill:#4d4d4d;fill-opacity:1;stroke:none" id="rect4167" d="M 8,3 8,9 9,9 9,4 13,4 13,9 14,9 14,3 13,3 9,3 8,3 Z" transform="translate(0,1030.3622)"/><path style="color:#000;font-style:normal;font-variant:normal;font-weight:400;font-stretch:normal;font-size:medium;line-height:normal;font-family:sans-serif;text-indent:0;text-align:start;text-decoration:none;text-decoration-line:none;text-decoration-style:solid;text-decoration-color:#000;letter-spacing:normal;word-spacing:normal;text-transform:none;direction:ltr;block-progression:tb;writing-mode:lr-tb;baseline-shift:baseline;text-anchor:start;white-space:normal;clip-rule:nonzero;display:inline;overflow:visible;visibility:visible;opacity:1;isolation:auto;mix-blend-mode:normal;color-interpolation:sRGB;color-interpolation-filters:linearRGB;solid-color:#000;solid-opacity:1;fill:#4d4d4d;fill-opacity:1;fill-rule:evenodd;stroke:none;stroke-width:1px;stroke-linecap:butt;stroke-linejoin:miter;stroke-miterlimit:4;stroke-dasharray:none;stroke-dashoffset:0;stroke-opacity:1;color-rendering:auto;image-rendering:auto;shape-rendering:auto;text-rendering:auto;enable-background:accumulate" id="path4178" d="M 5.7924114,1040.3622 5,1041.1788 l 6,6.1834 6,-6.1834 -0.792412,-0.8166 L 11,1045.7289 5.7924114,1040.3622 Z"/></g></g></g></svg>