<svg xmlns="http://www.w3.org/2000/svg" xmlns:svg="http://www.w3.org/2000/svg" id="svg952" width="22" height="22" version="1.1"><metadata id="metadata957"/><g id="layer2"><path style="opacity:.6;fill:#4d4d4d;fill-opacity:1;fill-rule:evenodd;stroke:none" id="rect4140" d="m 6.90625,7.84375 0,11.125 5.85,0 0.975,0 2.925,-2.78125 0,-0.927083 0,-7.416667 -9.75,0 z m 0.975,0.9270833 7.8,0 0,6.4895837 -2.925,0 0,2.78125 -4.875,0 0,-9.2708337 z"/></g><g id="layer1" transform="translate(0,-1030.3622)"><path style="fill:#4d4d4d;stroke:none;stroke-width:1px;stroke-linecap:butt;stroke-linejoin:miter;stroke-opacity:1;fill-opacity:1" id="path4146" d="m 12.29286,1043.3622 0.707107,-0.7071 6.000032,6 -0.707075,0.7071 z"/><path style="fill:#4d4d4d;fill-opacity:1;stroke:none" id="rect4095" d="M 9 3 C 5.6759952 3 3 5.6759952 3 9 C 3 12.324005 5.6759952 15 9 15 C 12.324005 15 15 12.324005 15 9 C 15 5.6759952 12.324005 3 9 3 z M 9 4 C 11.770005 4 14 6.2299952 14 9 C 14 11.770005 11.770005 14 9 14 C 6.2299952 14 4 11.770005 4 9 C 4 6.2299952 6.2299952 4 9 4 z" transform="translate(0,1030.3622)"/></g></svg>