<svg xmlns="http://www.w3.org/2000/svg" xmlns:svg="http://www.w3.org/2000/svg" id="svg3760" width="24" height="24" version="1.1"><metadata id="metadata3765"/><g id="layer1" transform="translate(-550.28572,-606.6479)"><g id="g4216"><path id="path4143" d="M 12 4 A 8 8 0 0 0 4 12 A 8 8 0 0 0 12 20 A 8 8 0 0 0 20 12 A 8 8 0 0 0 12 4 z M 12 4.8886719 A 7.1111112 7.1111112 0 0 1 19.111328 12 A 7.1111112 7.1111112 0 0 1 12 19.111328 A 7.1111112 7.1111112 0 0 1 4.8886719 12 A 7.1111112 7.1111112 0 0 1 12 4.8886719 z" transform="translate(550.28572,606.6479)" style="opacity:1;fill:#da4453;fill-opacity:1;stroke:none"/><rect id="rect4203" width="1" height="15.971" x="-40.354" y="827.061" transform="matrix(0.70710678,-0.70710678,0.70710678,0.70710678,0,0)" style="opacity:1;fill:#da4453;fill-opacity:1;stroke:none"/></g></g></svg>