<svg xmlns="http://www.w3.org/2000/svg" xmlns:svg="http://www.w3.org/2000/svg" id="svg3869" width="24" height="24" version="1.1"><defs id="defs3871"><linearGradient id="linearGradient3257"><stop offset="0" style="stop-color:#a50000;stop-opacity:1" id="stop3259"/><stop offset="1" style="stop-color:#e73800;stop-opacity:1" id="stop3261"/></linearGradient></defs><metadata id="metadata3874"/><g id="layer1" transform="translate(-326,-532.3622)"><g id="layer1-9" transform="translate(327,-497)"><path id="rect4164" d="m 3.5,1033.362 c -0.1713731,0 -0.3353491,0.025 -0.5,0.049 l 0,1.9512 c 1.108,0 2,0.892 2,2 l 0,3 0,5 c 0,1.108 -0.892,2 -2,2 l 0,1.9512 c 0.1646509,0.024 0.3286269,0.049 0.5,0.049 l 1.5,0 4,0 5,0 c 2.769995,0 5,-2.23 5,-5 0,-2.2049 -1.422883,-4.0466 -3.396484,-4.7148 C 16.447639,1039.0093 17,1038.0063 17,1036.862 c 0,-1.939 -1.561,-3.5 -3.5,-3.5 l -4.5,0 -4,0 -1.5,0 z m 5.5,2 2,0 c 1.108,0 2,0.892 2,2 0,1.108 -0.892,2 -2,2 l -2,0 0,-4 z m 0,6 3,0 c 1.662,0 3,1.338 3,3 0,1.662 -1.338,3 -3,3 l -3,0 0,-6 z" style="opacity:1;fill:#4d4d4d;fill-opacity:1;stroke:none;stroke-opacity:1"/></g></g></svg>