<svg xmlns="http://www.w3.org/2000/svg" xmlns:svg="http://www.w3.org/2000/svg" id="svg3869" width="24" height="24" version="1.1"><defs id="defs3871"><linearGradient id="linearGradient3257"><stop offset="0" style="stop-color:#a50000;stop-opacity:1" id="stop3259"/><stop offset="1" style="stop-color:#e73800;stop-opacity:1" id="stop3261"/></linearGradient><clipPath id="clipPath4210" clipPathUnits="userSpaceOnUse"><rect id="rect4212" width="34" height="34" x="-7" y="1024.362" style="opacity:1;fill:#00f;fill-opacity:.51376145;stroke:none;stroke-opacity:1"/></clipPath><clipPath id="clipPath4160" clipPathUnits="userSpaceOnUse"><rect style="opacity:1;fill:#aade87;fill-opacity:.47247709;stroke:none;stroke-opacity:1" id="rect4162" width="32" height="32" x="-6" y="1028.362"/></clipPath><clipPath id="clipPath4160-4" clipPathUnits="userSpaceOnUse"><rect id="rect4162-5" width="1" height="1" x="7" y="1023.362" style="opacity:1;fill:#f2f2f2;fill-opacity:1;stroke:none;stroke-opacity:1"/></clipPath><clipPath id="clipPath16" clipPathUnits="userSpaceOnUse"><path id="path18" d="m 0,706.465 1490.926,0 L 1490.926,0 0,0 0,706.465 Z"/></clipPath><clipPath id="clipPath24" clipPathUnits="userSpaceOnUse"><path id="path26" d="m 22.1953,686.117 1447.7347,0 0,-667.1902 -1447.7347,0 L 22.1953,686.117 Z"/></clipPath><clipPath id="clipPath4160-3" clipPathUnits="userSpaceOnUse"><rect id="rect4162-58" width="1" height="1" x="7" y="1023.362" style="opacity:1;fill:#f2f2f2;fill-opacity:1;stroke:none;stroke-opacity:1"/></clipPath><clipPath id="clipPath4160-2" clipPathUnits="userSpaceOnUse"><rect style="opacity:1;fill:#f2f2f2;fill-opacity:1;stroke:none;stroke-opacity:1" id="rect4162-4" width="1" height="1" x="7" y="1023.362"/></clipPath></defs><metadata id="metadata3874"/><g id="layer1" transform="translate(-326,-532.3622)"><g id="layer1-4" transform="translate(326,-495.99996)"><g id="layer1-5" transform="translate(-551.28571,422.71427)"><path style="color:#000;display:inline;overflow:visible;visibility:visible;fill:#f47750;fill-opacity:1;fill-rule:nonzero;stroke:none;stroke-width:2;marker:none;enable-background:accumulate" id="path3083" d="m 569.28571,610.64791 c -0.55229,0 -1,0.44771 -1,1 0,0.55228 0.44771,1 1,1 0.55228,0 1,-0.44772 1,-1 0,-0.55229 -0.44772,-1 -1,-1 z m 0,4 c -0.55229,0 -1,0.44771 -1,1 0,0.55228 0.44771,1 1,1 0.55228,0 1,-0.44772 1,-1 0,-0.55229 -0.44772,-1 -1,-1 z m 0,4 c -0.55229,0 -1,0.44771 -1,1 0,0.55228 0.44771,1 1,1 0.55228,0 1,-0.44772 1,-1 0,-0.55229 -0.44772,-1 -1,-1 z"/><path style="color:#000;font-style:normal;font-variant:normal;font-weight:400;font-stretch:normal;font-size:medium;line-height:125%;font-family:Oxygen;-inkscape-font-specification:Oxygen;letter-spacing:0;word-spacing:0;display:inline;overflow:visible;visibility:visible;fill:#4d4d4d;fill-opacity:1;fill-rule:nonzero;stroke:none;marker:none;enable-background:accumulate" id="path4149-2-37" d="m 561.1962,611.64789 -3.31458,9.59375 -0.12277,0.40625 -1.47314,4 1.65728,0 1.6266,-4.4375 5.43223,0 1.6266,4.4375 1.65729,0 -1.47314,-4 -0.12276,-0.40625 -3.31458,-9.59375 -0.21484,0 -1.74937,0 -0.21482,0 z m 1.10485,1.9375 2.17903,6.34375 -4.38874,0 2.20971,-6.34375 z"/></g></g></g></svg>