<svg xmlns="http://www.w3.org/2000/svg" xmlns:svg="http://www.w3.org/2000/svg" id="svg3869" width="24" height="24" version="1.1"><defs id="defs3871"><linearGradient id="linearGradient4066"><stop offset="0" style="stop-color:#dbc9ee;stop-opacity:1" id="stop4068"/><stop offset="1" style="stop-color:#faf7fd;stop-opacity:1" id="stop4070"/></linearGradient><linearGradient id="linearGradient3843-5"><stop id="stop3845-0" style="stop-color:#5a2c8b;stop-opacity:1" offset="0"/><stop id="stop3847-4" style="stop-color:#9d59cf;stop-opacity:1" offset="1"/></linearGradient></defs><metadata id="metadata3874"/><g id="layer1" transform="translate(-326,-532.3622)"><g id="layer1-2" transform="translate(-226.72253,-49.75706)"><path id="rect4112" d="m 3,3 0,1 0,15 1,0 11,0 -3,-3 3,-3 2,0 -1,-1 -2,-2 -4,4 L 9,13 4.1484375,17.851562 4,18 4,4 18,4 18,12 19,12 19,4 19,3 4,3 3,3 Z M 7,5 C 5.892,5 5,5.892 5,7 5,8.108 5.892,9 7,9 8.108,9 9,8.108 9,7 9,5.892 8.108,5 7,5 Z m 9,9 0,2 -2,0 0,1 2,0 0,2 1,0 0,-2 2,0 0,-1 -2,0 0,-2 -1,0 z" transform="translate(553.72253,583.11926)" style="opacity:1;fill:#4d4d4d;fill-opacity:1;stroke:none"/></g></g></svg>