<svg xmlns="http://www.w3.org/2000/svg" xmlns:svg="http://www.w3.org/2000/svg" id="svg3869" width="24" height="24" version="1.1"><metadata id="metadata3874"/><g id="layer1" transform="translate(-326,-532.3622)"><g id="layer1-2" transform="translate(327,-497)"><path id="rect3356" d="m 11,3 c -4.432,0 -8,3.568 -8,8 0,4.432 3.568,8 8,8 4.432,0 8,-3.568 8,-8 0,-4.432 -3.568,-8 -8,-8 z m 0,1 c 3.878,0 7,3.122 7,7 0,3.878 -3.122,7 -7,7 C 7.122,18 4,14.878 4,11 4,7.122 7.122,4 11,4 Z" transform="translate(0,1030.3622)" style="fill:#4d4d4d;fill-opacity:1;stroke:none"/><path id="path3357" d="m 8,1044.3622 4,-3 -4,-3 z" style="fill:#4d4d4d;fill-opacity:1;stroke:none"/><rect id="rect3402" width="2" height="6" x="12" y="1038.362" style="fill:#4d4d4d;fill-opacity:1;stroke:none"/></g></g></svg>