<svg xmlns="http://www.w3.org/2000/svg" xmlns:svg="http://www.w3.org/2000/svg" xmlns:xlink="http://www.w3.org/1999/xlink" id="svg3869" width="24" height="24" version="1.1"><defs id="defs3871"><clipPath id="clipPath4160" clipPathUnits="userSpaceOnUse"><rect id="rect4162" width="1" height="1" x="7" y="1023.362" style="opacity:1;fill:#f2f2f2;fill-opacity:1;stroke:none;stroke-opacity:1"/></clipPath><linearGradient id="linearGradient4123" x1="3" x2="15" y1="1045.362" y2="1045.362" gradientTransform="translate(0,-1.9999941)" gradientUnits="userSpaceOnUse" xlink:href="#linearGradient4021-3"/><linearGradient id="linearGradient4021-3"><stop id="stop4023-0" offset="0" style="stop-color:#b3b3b3;stop-opacity:1"/><stop id="stop4025-2" offset="1" style="stop-color:#4d4d4d;stop-opacity:1"/></linearGradient><clipPath id="clipPath4160-8" clipPathUnits="userSpaceOnUse"><rect id="rect4162-9" width="1" height="1" x="7" y="1023.362" style="opacity:1;fill:#f2f2f2;fill-opacity:1;stroke:none;stroke-opacity:1"/></clipPath></defs><metadata id="metadata3874"/><g id="layer1" transform="translate(-326,-532.3622)"><g id="layer1-6" transform="translate(-94.71429,7.57146)"><path id="rect4089" d="m 3,3 0,16 10,0 0,-1 -9,0 0,-11 14,0 0,6 1,0 0,-10 -2,0 0,2.0996094 -2,0 L 15,3 7,3 l 0,2.0996094 -2,0 L 5,3 3,3 Z m 3,5 0,2 2,0 0,-2 -2,0 z m 4,0 0,2 2,0 0,-2 -2,0 z m 4,0 0,2 2,0 0,-2 -2,0 z m -8,3 0,2 2,0 0,-2 -2,0 z m 4,0 0,2 2,0 0,-2 -2,0 z m 4,0 0,2 2,0 0,-2 -2,0 z m 2,3 0,2 -2,0 0,1 2,0 0,2 1,0 0,-2 2,0 0,-1 -2,0 0,-2 -1,0 z" transform="translate(421.71429,525.79074)" style="fill:#4d4d4d;fill-opacity:1;stroke:none"/></g></g></svg>