<svg xmlns="http://www.w3.org/2000/svg" xmlns:svg="http://www.w3.org/2000/svg" id="svg3869" width="24" height="24" version="1.1"><defs id="defs3871"><linearGradient id="linearGradient4290-48"><stop id="stop4292-0" offset="0" style="stop-color:#a5a5a5;stop-opacity:1"/><stop id="stop4294-0" offset="1" style="stop-color:#f5f2f5;stop-opacity:1"/></linearGradient><clipPath id="clipPath16" clipPathUnits="userSpaceOnUse"><path id="path18" d="m 0,706.465 1490.926,0 L 1490.926,0 0,0 0,706.465 Z"/></clipPath><clipPath id="clipPath24" clipPathUnits="userSpaceOnUse"><path id="path26" d="m 22.1953,686.117 1447.7347,0 0,-667.1902 -1447.7347,0 L 22.1953,686.117 Z"/></clipPath></defs><metadata id="metadata3874"/><g id="layer1" transform="translate(-326,-532.3622)"><g id="layer1-3" transform="translate(-94.71429,7.57146)"><path id="rect3344-6" d="m 3,3 0,3 0,13 1,0 5,0 0,-1 -5,0 0,-12 12,0 0,4 1,0 0,-4 0,-1 0,-2 -2,0 0,1 L 14,4 14,3 6,3 6,4 5,4 5,3 Z m 14,8 -0.996094,0.994141 -0.0039,-0.0039 -5,4.998047 0.0078,0.0078 L 11.003906,18 11,18 11,18.990234 11,19 l 2,0 0.0059,-0.0059 0.0039,-0.0039 c 0.004,-2e-5 0.0058,0.002 0.0098,0.002 L 13.0137,18.9863 14,18 l 4,-3.996094 -0.705078,-0.708984 -4.990234,4.986328 -0.59375,-0.591797 4.992187,-4.988281 0.591797,0.59375 L 18,13.998047 l 1,-1 z" transform="translate(421.71429,525.79074)" style="opacity:1;fill:#4d4d4d;fill-opacity:1;stroke:none;stroke-width:2.79999995;stroke-miterlimit:4;stroke-dasharray:none;stroke-opacity:.55026455"/><path id="rect3383" d="m 426.71429,532.79071 10,0 0,1 -10,0 z" style="opacity:1;fill:#4d4d4d;fill-opacity:1;stroke:none;stroke-width:2.79999995;stroke-miterlimit:4;stroke-dasharray:none;stroke-opacity:.55026455"/><path id="rect3390" d="m 426.71429,535.79071 10,0 0,1 -10,0 z" style="opacity:1;fill:#4d4d4d;fill-opacity:1;stroke:none;stroke-width:2.79999995;stroke-miterlimit:4;stroke-dasharray:none;stroke-opacity:.55026455"/><path id="rect3392" d="m 426.71429,538.79071 7,0 0,1 -7,0 z" style="opacity:1;fill:#4d4d4d;fill-opacity:1;stroke:none;stroke-width:2.79999995;stroke-miterlimit:4;stroke-dasharray:none;stroke-opacity:.55026455"/></g></g></svg>