<svg xmlns="http://www.w3.org/2000/svg" xmlns:svg="http://www.w3.org/2000/svg" id="svg3869" width="24" height="24" version="1.1"><defs id="defs3871"><linearGradient id="linearGradient4290-48"><stop id="stop4292-0" offset="0" style="stop-color:#a5a5a5;stop-opacity:1"/><stop id="stop4294-0" offset="1" style="stop-color:#f5f2f5;stop-opacity:1"/></linearGradient><clipPath id="clipPath16" clipPathUnits="userSpaceOnUse"><path id="path18" d="m 0,706.465 1490.926,0 L 1490.926,0 0,0 0,706.465 Z"/></clipPath><clipPath id="clipPath24" clipPathUnits="userSpaceOnUse"><path id="path26" d="m 22.1953,686.117 1447.7347,0 0,-667.1902 -1447.7347,0 L 22.1953,686.117 Z"/></clipPath></defs><metadata id="metadata3874"/><g id="layer1" transform="translate(-326,-532.3622)"><g id="layer1-7" transform="matrix(1,0,0,0.98722774,-94.71429,14.325312)"><path id="rect4144" d="m 432.21429,528.79074 c -0.65424,0 -1.2022,0.41808 -1.4082,1 l -4.0918,0 -1,0 0,1 0,11.0918 c -0.58192,0.206 -1,0.75396 -1,1.4082 0,0.831 0.669,1.5 1.5,1.5 0.831,0 1.5,-0.669 1.5,-1.5 0,-0.65424 -0.41808,-1.2022 -1,-1.4082 l 0,-11.0918 4.0918,0 c 0.15034,0.4247 0.4835,0.75786 0.9082,0.9082 l 0,6.0918 0,1 1,0 0.0918,0 c 0.206,0.58192 0.75396,1 1.4082,1 0.831,0 1.5,-0.669 1.5,-1.5 0,-0.831 -0.669,-1.5 -1.5,-1.5 -0.65424,0 -1.2022,0.41808 -1.4082,1 l -0.0918,0 0,-6.0918 c 0.58192,-0.206 1,-0.75396 1,-1.4082 0,-0.831 -0.669,-1.5 -1.5,-1.5 z m 0,1 c 0.277,0 0.5,0.223 0.5,0.5 0,0.277 -0.223,0.5 -0.5,0.5 -0.277,0 -0.5,-0.223 -0.5,-0.5 0,-0.277 0.223,-0.5 0.5,-0.5 z m 2,8 c 0.277,0 0.5,0.223 0.5,0.5 0,0.277 -0.223,0.5 -0.5,0.5 -0.277,0 -0.5,-0.223 -0.5,-0.5 0,-0.277 0.223,-0.5 0.5,-0.5 z m -8,5 c 0.277,0 0.5,0.223 0.5,0.5 0,0.277 -0.223,0.5 -0.5,0.5 -0.277,0 -0.5,-0.223 -0.5,-0.5 0,-0.277 0.223,-0.5 0.5,-0.5 z" style="opacity:1;fill:#4d4d4d;fill-opacity:1;stroke:none;stroke-width:2.79999995;stroke-miterlimit:4;stroke-dasharray:none;stroke-opacity:.55026455"/><path id="rect4071" d="m 438.21429,544.99774 -0.20703,-0.207 -3.29297,-3.293 0.70703,-0.707 2.29297,2.2929 0,-4.2929 1,0 0,4.2929 2.29297,-2.2929 0.70703,0.707 -3.29297,3.293 -0.20703,0.207 z" style="fill:#4d4d4d;fill-opacity:1;stroke:none"/></g></g></svg>