<svg xmlns="http://www.w3.org/2000/svg" xmlns:svg="http://www.w3.org/2000/svg" id="svg3869" width="22" height="22" version="1.1"><metadata id="metadata3874"/><g id="layer1" transform="translate(-326,-534.3622)"><rect style="fill:#6c7a89;fill-opacity:1;stroke:none" id="rect4035" width="0" height="14.668" x="256.226" y="514.698"/><rect style="fill:#6c7a89;fill-opacity:1;stroke:none" id="rect4035-8" width="0" height="14.668" x="263.186" y="537.268"/><rect style="fill:#6c7a89;fill-opacity:1;stroke:none" id="rect4035-0" width="0" height="14.668" x="264.999" y="536.207"/><rect style="fill:#6c7a89;fill-opacity:1;stroke:none" id="rect4035-3" width="0" height="14.668" x="256.226" y="514.698"/><rect style="fill:#6c7a89;fill-opacity:1;stroke:none" id="rect4035-8-9" width="0" height="14.668" x="263.186" y="537.268"/><rect style="fill:#6c7a89;fill-opacity:1;stroke:none" id="rect4035-0-4" width="0" height="14.668" x="264.999" y="536.207"/><rect style="fill:#6c7a89;fill-opacity:1;stroke:none" id="rect4035-2" width="0" height="14.668" x="256.226" y="514.698"/><rect style="fill:#6c7a89;fill-opacity:1;stroke:none" id="rect4035-8-99" width="0" height="14.668" x="263.186" y="537.268"/><rect style="fill:#6c7a89;fill-opacity:1;stroke:none" id="rect4035-0-43" width="0" height="14.668" x="264.999" y="536.207"/><rect style="fill:#6c7a89;fill-opacity:1;stroke:none" id="rect4035-3-9" width="0" height="14.668" x="256.226" y="514.698"/><rect style="fill:#6c7a89;fill-opacity:1;stroke:none" id="rect4035-8-9-9" width="0" height="14.668" x="263.186" y="537.268"/><rect style="fill:#6c7a89;fill-opacity:1;stroke:none" id="rect4035-0-4-4" width="0" height="14.668" x="264.999" y="536.207"/><rect style="fill:#6c7a89;fill-opacity:1;stroke:none" id="rect4035-6" width="0" height="14.668" x="273.382" y="518.479"/><rect style="fill:#6c7a89;fill-opacity:1;stroke:none" id="rect4035-8-8" width="0" height="14.668" x="280.342" y="541.049"/><rect style="fill:#6c7a89;fill-opacity:1;stroke:none" id="rect4035-0-6" width="0" height="14.668" x="282.156" y="539.989"/><rect style="fill:#6c7a89;fill-opacity:1;stroke:none;stroke-width:6;stroke-miterlimit:4;stroke-dasharray:none" id="rect5056" width="16" height="1" x="329" y="537.362"/><rect style="fill:#6c7a89;fill-opacity:1;stroke:none;stroke-width:6;stroke-miterlimit:4;stroke-dasharray:none" id="rect5058" width="16" height="1" x="329" y="552.362"/><rect style="fill:#6c7a89;fill-opacity:1;stroke:none;stroke-width:6;stroke-miterlimit:4;stroke-dasharray:none" id="rect5060" width="11" height="1" x="332" y="540.362"/><rect style="fill:#6c7a89;fill-opacity:1;stroke:none;stroke-width:6;stroke-miterlimit:4;stroke-dasharray:none" id="rect5062" width="5" height="1" x="332" y="543.362"/><rect style="fill:#6c7a89;fill-opacity:1;stroke:none;stroke-width:6;stroke-miterlimit:4;stroke-dasharray:none" id="rect5064" width="11" height="1" x="332" y="546.362"/><rect style="fill:#6c7a89;fill-opacity:1;stroke:none;stroke-width:6;stroke-miterlimit:4;stroke-dasharray:none" id="rect5066" width="5" height="1" x="332" y="549.362"/><circle style="fill:#6c7a89;fill-opacity:1;stroke:none;stroke-width:6;stroke-miterlimit:4;stroke-dasharray:none" id="path5068" cx="329.5" cy="540.862" r=".5"/><circle style="fill:#6c7a89;fill-opacity:1;stroke:none;stroke-width:6;stroke-miterlimit:4;stroke-dasharray:none" id="path5070" cx="329.5" cy="546.862" r=".5"/></g></svg>