<svg xmlns="http://www.w3.org/2000/svg" xmlns:svg="http://www.w3.org/2000/svg" xmlns:xlink="http://www.w3.org/1999/xlink" id="svg2" width="64" height="64" version="1.1" viewBox="0 0 64 64"><metadata id="metadata84"/><defs id="defs4"><linearGradient id="linearGradient4306" x1="32" x2="32" y1="61" y2="3" gradientUnits="userSpaceOnUse" xlink:href="#linearGradient4300-7"/><linearGradient id="linearGradient4427" x1="54" x2="40" y1="31" y2="17" gradientTransform="matrix(1,0,0,-1,-14,78)" gradientUnits="userSpaceOnUse" xlink:href="#linearGradient4410"/><linearGradient id="linearGradient4410"><stop style="stop-color:#383e51;stop-opacity:1" id="stop4412" offset="0"/><stop style="stop-color:#655c6f;stop-opacity:0" id="stop4414" offset="1"/></linearGradient><linearGradient id="linearGradient4357" x1="47" x2="47" y1="61" y2="47" gradientUnits="userSpaceOnUse" xlink:href="#linearGradient4351-8"/><linearGradient id="linearGradient4351-8"><stop style="stop-color:#dedede;stop-opacity:1" id="stop4353-5" offset="0"/><stop style="stop-color:#fbfbfb;stop-opacity:1" id="stop4355-8" offset="1"/></linearGradient><linearGradient id="linearGradient4300-7"><stop style="stop-color:#5e6b78;stop-opacity:1" id="stop4302-2" offset="0"/><stop style="stop-color:#768492;stop-opacity:1" id="stop4304-4" offset="1"/></linearGradient></defs><path style="fill:url(#linearGradient4306);fill-opacity:1;stroke:none" id="rect3500" d="M 10 3 L 10 61 L 40 61 L 54 47 L 54 17 L 54 3 L 40 3 L 10 3 z"/><rect style="opacity:1;fill:#2e3132;fill-opacity:.29411765;stroke:none" id="rect4169" width="30" height="1" x="10" y="60"/><rect style="opacity:1;fill:#fff;fill-opacity:.40983605;stroke:none" id="rect4236" width="44" height="1" x="10" y="3"/><path style="fill:url(#linearGradient4357);fill-opacity:1;fill-rule:evenodd;stroke:none;stroke-width:1px;stroke-linecap:butt;stroke-linejoin:miter;stroke-opacity:1" id="path4314" d="M 54,47 40,61 40,47 Z"/><path id="path4320" d="M 26,61 40,47 40,61 Z" style="opacity:.2;fill:url(#linearGradient4427);fill-opacity:1;fill-rule:evenodd;stroke:none;stroke-width:1px;stroke-linecap:butt;stroke-linejoin:miter;stroke-opacity:1"/><path style="fill:#fbfbfb;fill-opacity:1" id="rect3367" d="M 19 24 L 19 40 L 45 40 L 45 24 L 19 24 z M 20 25 L 44 25 L 44 39 L 20 39 L 20 25 z M 21 26 L 21 26.826172 L 21 38 L 23 38 L 23 28.826172 L 27 32.826172 L 31 28.826172 L 31 38 L 33 38 L 33 26.826172 L 33 26 L 30.998047 26 L 27 29.998047 L 23.001953 26 L 23 26 L 21 26 z M 38 26 L 38 34 L 35 34 L 39 38 L 43 34 L 40 34 L 40 26 L 38 26 z"/></svg>