<svg xmlns="http://www.w3.org/2000/svg" xmlns:svg="http://www.w3.org/2000/svg" id="svg3869" width="24" height="24" version="1.1"><defs id="defs3871"><linearGradient id="linearGradient4290-48"><stop id="stop4292-0" offset="0" style="stop-color:#a5a5a5;stop-opacity:1"/><stop id="stop4294-0" offset="1" style="stop-color:#f5f2f5;stop-opacity:1"/></linearGradient><clipPath id="clipPath16" clipPathUnits="userSpaceOnUse"><path id="path18" d="m 0,706.465 1490.926,0 L 1490.926,0 0,0 0,706.465 Z"/></clipPath><clipPath id="clipPath24" clipPathUnits="userSpaceOnUse"><path id="path26" d="m 22.1953,686.117 1447.7347,0 0,-667.1902 -1447.7347,0 L 22.1953,686.117 Z"/></clipPath></defs><metadata id="metadata3874"/><g id="layer1" transform="translate(-326,-532.3622)"><g id="layer1-1" transform="translate(327,-497)"><path id="rect4144" d="m 3,3 0,1 0,15 1,0 6,0 0,-1 L 4,18 4,4 10,4 10,3 4,3 3,3 Z m 10,0 0,1 5,0 0,14 -5,0 0,1 6,0 0,-1 0,-15 -6,0 z m 0,15 0,-14 -1,0 0,14 1,0 z M 5,5 5,6 8,6 8,5 5,5 Z M 5,7 5,8 8,8 8,7 5,7 Z m 0,2 0,1 3,0 0,-1 -3,0 z m 4,0 0,4 2,-2 -2,-2 z m -4,2 0,1 2,0 0,-1 -2,0 z" transform="translate(0,1030.3622)" style="opacity:1;fill:#4d4d4d;fill-opacity:1;stroke:none;stroke-width:2.79999995;stroke-miterlimit:4;stroke-dasharray:none;stroke-opacity:.55026455"/></g></g></svg>