<svg xmlns="http://www.w3.org/2000/svg" xmlns:svg="http://www.w3.org/2000/svg" id="svg3869" width="24" height="24" version="1.1"><defs id="defs3871"><linearGradient id="linearGradient4290-48"><stop id="stop4292-0" offset="0" style="stop-color:#a5a5a5;stop-opacity:1"/><stop id="stop4294-0" offset="1" style="stop-color:#f5f2f5;stop-opacity:1"/></linearGradient></defs><metadata id="metadata3874"/><g id="layer1" transform="translate(-326,-532.3622)"><g id="layer1-9" transform="translate(327,-497)"><path id="rect4129" d="m 3,3 0,16 1,0 15,0 0,-1 L 19,3 18,3 4,3 3,3 Z M 4,4 18,4 18,18 4,18 4,4 Z M 5,5 5,6 6,6 6,5 5,5 Z M 6,6 6,8 8,8 8,6 6,6 Z M 8,6 9,6 9,5 8,5 8,6 Z M 8,8 8,9 9,9 9,8 8,8 Z M 6,8 5,8 5,9 6,9 6,8 Z m 7,-3 0,1 1,0 0,-1 -1,0 z m 1,1 0,2 2,0 0,-2 -2,0 z m 2,0 1,0 0,-1 -1,0 0,1 z m 0,2 0,1 1,0 0,-1 -1,0 z m -2,0 -1,0 0,1 1,0 0,-1 z m -5,3 0,2 4,0 0,-2 -4,0 z m 4,2 0,2 2,0 0,-2 -2,0 z m 2,2 0,2 2,0 0,-2 -2,0 z m -6,-2 -2,0 0,2 2,0 0,-2 z m -2,2 -2,0 0,2 2,0 0,-2 z" transform="translate(0,1030.3622)" style="opacity:1;fill:#4d4d4d;fill-opacity:1;stroke:none"/></g></g></svg>