<svg xmlns="http://www.w3.org/2000/svg" xmlns:svg="http://www.w3.org/2000/svg" id="svg3869" width="24" height="24" version="1.1"><defs id="defs3871"><linearGradient id="linearGradient4290-48"><stop id="stop4292-0" offset="0" style="stop-color:#a5a5a5;stop-opacity:1"/><stop id="stop4294-0" offset="1" style="stop-color:#f5f2f5;stop-opacity:1"/></linearGradient></defs><metadata id="metadata3874"/><g id="layer1" transform="translate(-326,-532.3622)"><g id="layer1-2" transform="translate(-226.72253,-49.75706)"><path id="rect4150" d="m 8,3 0,1 0,1 1,0 0,-1 4,0 0,1 1,0 0,-1 0,-1 -6,0 z M 4,6 4,7 18,7 18,6 4,6 Z m 2,2 0,11 1,0 9,0 0,-1 L 16,8 15,8 15,18 7,18 7,8 6,8 Z" transform="translate(553.72253,583.11926)" style="opacity:1;fill:#4d4d4d;fill-opacity:1;stroke:none;stroke-width:.1;stroke-miterlimit:4;stroke-dasharray:none;stroke-opacity:1"/></g></g></svg>