<svg xmlns="http://www.w3.org/2000/svg" xmlns:svg="http://www.w3.org/2000/svg" id="svg3869" width="24" height="24" version="1.1"><defs id="defs3871"><linearGradient id="linearGradient4066"><stop offset="0" style="stop-color:#dbc9ee;stop-opacity:1" id="stop4068"/><stop offset="1" style="stop-color:#faf7fd;stop-opacity:1" id="stop4070"/></linearGradient><linearGradient id="linearGradient3843-5"><stop id="stop3845-0" style="stop-color:#5a2c8b;stop-opacity:1" offset="0"/><stop id="stop3847-4" style="stop-color:#9d59cf;stop-opacity:1" offset="1"/></linearGradient><clipPath id="clipPath4160" clipPathUnits="userSpaceOnUse"><rect style="opacity:1;fill:#f2f2f2;fill-opacity:1;stroke:none;stroke-opacity:1" id="rect4162" width="1" height="1" x="7" y="1023.362"/></clipPath><linearGradient id="linearGradient4290-48"><stop style="stop-color:#a5a5a5;stop-opacity:1" id="stop4292-0" offset="0"/><stop style="stop-color:#f5f2f5;stop-opacity:1" id="stop4294-0" offset="1"/></linearGradient></defs><metadata id="metadata3874"/><g id="layer1" transform="translate(-326,-532.3622)"><g id="layer1-1" transform="translate(-94.71429,7.57146)"><path id="rect4089" d="m 3,3 0,16 9,0 0,-1 -8,0 0,-11 14,0 0,5 1,0 0,-9 -2,0 0,3 L 15,6 15,3 7,3 7,6 5,6 5,3 3,3 Z M 14.292969,9 9.7011719,13.591797 8.5546875,12.445312 7.8476562,13.152344 9.6933594,15 9.6992188,14.992188 9.7070312,15 15,9.7070312 14.292969,9 Z" transform="translate(421.71429,525.79074)" style="fill:#4d4d4d;fill-opacity:1;stroke:none"/><path id="rect4146" d="m 13,13 0,1 0,5 6,0 0,-5 0,-1 -1,0 0,1 -1,0 0,-1 -2,0 0,1 -1,0 0,-1 -1,0 z m 1,2 4,0 0,3 -4,0 0,-3 z" transform="translate(421.71429,525.79074)" style="fill:#4d4d4d;fill-opacity:1;stroke:none"/></g></g></svg>