<svg xmlns="http://www.w3.org/2000/svg" xmlns:svg="http://www.w3.org/2000/svg" id="svg3869" width="24" height="24" version="1.1"><defs id="defs3871"><linearGradient id="linearGradient4290-48"><stop id="stop4292-0" offset="0" style="stop-color:#a5a5a5;stop-opacity:1"/><stop id="stop4294-0" offset="1" style="stop-color:#f5f2f5;stop-opacity:1"/></linearGradient></defs><metadata id="metadata3874"/><g id="layer1" transform="translate(-326,-532.3622)"><g id="layer1-2" transform="translate(-94.71429,7.57146)"><path id="rect4151" d="m 4,3 0,2 -1,0 0,1 1,0 0,1 -1,0 0,1 1,0 0,6 -1,0 0,1 1,0 0,1 -1,0 0,1 1,0 0,2 3,0 12,0 0,-1 L 19,3 7,3 Z m 3,1 2,0 1,0 8,0 0,2 0,1 0,2 0,1 0,2 0,1 0,2 0,1 0,2 -8,0 L 9,18 7,18 7,16 7,15 7,13 7,12 7,10 7,9 7,7 7,6 Z m 1,2 0,2 2,0 0,-2 z m 3,0 0,1 6,0 0,-1 z m -3,4 0,2 2,0 0,-2 z m 3,0 0,1 6,0 0,-1 z m -3,4 0,2 2,0 0,-2 z m 3,0 0,1 6,0 0,-1 z" transform="translate(421.71429,525.79074)" style="opacity:1;fill:#4d4d4d;fill-opacity:1;stroke:none;stroke-width:.1;stroke-miterlimit:4;stroke-dasharray:none;stroke-opacity:1"/></g></g></svg>