<svg xmlns="http://www.w3.org/2000/svg" xmlns:svg="http://www.w3.org/2000/svg" id="svg3869" width="24" height="24" version="1.1"><defs id="defs3871"><linearGradient id="linearGradient3257"><stop offset="0" style="stop-color:#a50000;stop-opacity:1" id="stop3259"/><stop offset="1" style="stop-color:#e73800;stop-opacity:1" id="stop3261"/></linearGradient><clipPath id="clipPath4210" clipPathUnits="userSpaceOnUse"><rect id="rect4212" width="34" height="34" x="-7" y="1024.362" style="opacity:1;fill:#00f;fill-opacity:.51376145;stroke:none;stroke-opacity:1"/></clipPath><clipPath id="clipPath4160" clipPathUnits="userSpaceOnUse"><rect style="opacity:1;fill:#aade87;fill-opacity:.47247709;stroke:none;stroke-opacity:1" id="rect4162" width="32" height="32" x="-6" y="1028.362"/></clipPath></defs><metadata id="metadata3874"/><g id="layer1" transform="translate(-326,-532.3622)"><g id="layer1-7" transform="translate(-94.71429,7.57146)"><circle id="circle16" cx="421.714" cy="-504.571" r="0"/><path id="path4144" d="m 432.71429,528.79074 a 7.9999995,8.0000081 0 0 0 -8,8 7.9999995,8.0000081 0 0 0 8,8 7.9999995,8.0000081 0 0 0 8,-8 7.9999995,8.0000081 0 0 0 -8,-8 z m -3.29297,4 3.29297,3.29297 3.29297,-3.29297 0.70703,0.70703 -3.29297,3.29297 3.29297,3.29297 -0.70703,0.70703 -3.29297,-3.29297 -3.29297,3.29297 -0.70703,-0.70703 3.29297,-3.29297 -3.29297,-3.29297 0.70703,-0.70703 z" style="opacity:1;fill:#da4453;fill-opacity:1"/></g></g></svg>