<svg xmlns="http://www.w3.org/2000/svg" xmlns:svg="http://www.w3.org/2000/svg" id="svg3869" width="24" height="24" version="1.1"><defs id="defs3871"><linearGradient id="linearGradient3257"><stop offset="0" style="stop-color:#a50000;stop-opacity:1" id="stop3259"/><stop offset="1" style="stop-color:#e73800;stop-opacity:1" id="stop3261"/></linearGradient><clipPath id="clipPath4210" clipPathUnits="userSpaceOnUse"><rect id="rect4212" width="34" height="34" x="-7" y="1024.362" style="opacity:1;fill:#00f;fill-opacity:.51376145;stroke:none;stroke-opacity:1"/></clipPath><clipPath id="clipPath4160" clipPathUnits="userSpaceOnUse"><rect style="opacity:1;fill:#aade87;fill-opacity:.47247709;stroke:none;stroke-opacity:1" id="rect4162" width="32" height="32" x="-6" y="1028.362"/></clipPath></defs><metadata id="metadata3874"/><g id="layer1" transform="translate(-326,-532.3622)"><g id="layer1-4" transform="translate(-217.57141,-209.57139)"><path id="path4162" d="m 547.57141,745.93359 0,1 0,3 1,0 0,-3 3,0 0,-1 -3,0 z" style="opacity:1;fill:#4d4d4d;fill-opacity:1;stroke:none"/><path id="path4118" d="M 5,5 5,17 17,17 17,5 5,5 Z M 6,6 16,6 16,16 6,16 6,6 Z" transform="translate(544.57141,742.93359)" style="opacity:1;fill:#4d4d4d;fill-opacity:1;stroke:none"/><path id="rect4134" d="m 562.57141,757.93359 0,3 -3,0 0,1 4,0 0,-1 0,-3 z" style="opacity:1;fill:#4d4d4d;fill-opacity:1;stroke:none"/><path style="opacity:1;fill:#4d4d4d;fill-opacity:1;stroke:none" id="path4170" d="m 563.57141,745.93359 0,1 0,3 -1,0 0,-3 -3,0 0,-1 3,0 z"/><path style="opacity:1;fill:#4d4d4d;fill-opacity:1;stroke:none" id="path4172" d="m 548.57141,757.93359 0,3 3,0 0,1 -4,0 0,-1 0,-3 z"/></g></g></svg>