<svg xmlns="http://www.w3.org/2000/svg" xmlns:cc="http://web.resource.org/cc/" id="svg2" width="48" height="48" viewBox="0 0 48 48" xml:space="preserve"><metadata id="metadata19"/><rect id="rect3315" style="fill:none" width="48.127" height="48.19" x="-.063" y="-.063"/><path id="path5506" style="stroke:#fff;stroke-width:8;fill:#fff" d="m6 9c-1 0-2 1-2 2v25c0 2 1 3 3 3h28c2 0 3-2 3-2l6-15c0.584-1.46 0-5-3-5h-5v-1c0-2-1-3-3-3h-13v-2c0-1-1-2-2-2h-12z"/><path id="path9" d="m6 9c-1 0-2 1-2 2v25c0 2 1 3 3 3h28c2 0 3-2 3-2l6-15c0.584-1.46 0-5-3-5h-5v-1c0-2-1-3-3-3h-13v-2c0-1-1-2-2-2h-12z"/><path id="path11" style="fill:#fff" d="m9 35l24 0.1c0.6 0 1.2-0.4 1.5-0.9 0.7-1 4.8-10.6 4.8-12.5 0-0.4 0-0.7-1.3-0.7h-23c-0.4 0-0.9 0.3-1 0.9-0.1 1.5-2.9 11.239-4 12.539-0.3 0.4-1 0.561-1 0.561z"/></svg>