<svg xmlns="http://www.w3.org/2000/svg" xmlns:cc="http://web.resource.org/cc/" id="svg249" width="48" height="48"><metadata id="metadata4"/><g id="layer5"><rect id="rect1493" style="fill:none" width="48" height="48" x="0" y="0"/><path id="path3244" style="fill:#fff" d="m40 20a20 20 0 1 1 -40 0 20 20 0 1 1 40 0z" transform="matrix(-1 0 0 1 48.013 0)"/><path id="path2682" style="stroke-linejoin:round;color:#000;stroke:#fff;stroke-linecap:round;stroke-width:8;fill:#fff" d="m18.513 29.5l-2 6.5-7.0004 7.5c-0.4825 0.517-2.7323 1.268-4.5-0.5-1.5-1.5-1.0334-4.002-0.5-4.5l7.5004-7 6.5-2z"/><path id="path4119" d="m36 20a16 16 0 1 1 -32 0 16 16 0 1 1 32 0z" transform="matrix(-1 0 0 1 48.013 0)"/><path id="path4994" style="fill:#fff" d="m32 20a12 12 0 1 1 -24 0 12 12 0 1 1 24 0z" transform="matrix(-1 0 0 1 48.013 0)"/><path id="path15511" style="color:#000" d="m18.513 29.5l-2 6.5-7.0004 7.5c-0.4825 0.517-2.7323 1.268-4.5-0.5-1.5-1.5-1.0334-4.002-0.5-4.5l7.5004-7 6.5-2z"/></g></svg>