<svg xmlns="http://www.w3.org/2000/svg" xmlns:cc="http://web.resource.org/cc/" id="svg2" width="48" height="48" version="1.0" viewBox="0 0 48 48" xml:space="preserve"><metadata id="metadata17"/><rect id="rect2169" style="opacity:.6;fill:none" width="48" height="48" x="0" y="0"/><path id="path3149" style="stroke-linejoin:round;stroke:#fff;stroke-linecap:round;stroke-width:8;fill:#fff" d="m40 27c1.3-1.2 1.4-2.5 2-4l-2-6-6 6-7-2-2-7 6-6-6-2c-1.5 0.6-2.8 1.8-4 3-3.8 3.8-4.9 9.3-3 14l-11 11c-1.9 1.9-1.9 5.1 0 7s5.1 1.9 7 0l11-11c4.7 2 11.2 0.8 15-3z"/><path id="path9" d="m40 27c1.3-1.2 1.4-2.5 2-4l-2-6-6 6-7-2-2-7 6-6-6-2c-1.5 0.6-2.8 1.8-4 3-3.8 3.8-4.9 9.3-3 14l-11 11c-1.9 1.9-1.9 5.1 0 7s5.1 1.9 7 0l11-11c4.7 2 11.2 0.8 15-3z"/><path id="path2176" style="fill:#fff" d="m12 38a2 2 0 1 1 -4 0 2 2 0 1 1 4 0z"/></svg>